<?xml version="1.0" encoding="UTF-8"?>
<svg version="1.1" xmlns="http://www.w3.org/2000/svg" width="198" height="151">
<path d="M0 0 C65.34 0 130.68 0 198 0 C198 49.83 198 99.66 198 151 C132.66 151 67.32 151 0 151 C0 101.17 0 51.34 0 0 Z " fill="#454442" transform="translate(0,0)"/>
<path d="M0 0 C1.98 0.66 3.96 1.32 6 2 C6 1.34 6 0.68 6 0 C61.44 0 116.88 0 174 0 C174 70 174 70 172 75 C172.35958728 76.89880915 172.35958728 76.89880915 173 79 C173.06898242 81.59373914 173.09434752 84.15810197 173.0625 86.75 C173.05798828 87.44738281 173.05347656 88.14476563 173.04882812 88.86328125 C173.0371002 90.57555803 173.01916653 92.28779033 173 94 C172.34 94 171.68 94 171 94 C169.65795898 92.63671875 169.65795898 92.63671875 168.05859375 90.6875 C163.35864071 85.16015051 158.21244309 80.10357873 153.0625 75 C152.0824469 74.02497614 151.1026276 73.0497172 150.12304688 72.07421875 C147.75097687 69.71383382 145.3765914 67.35583095 143 65 C139.27791717 66.73661132 136.89194833 68.87205863 134 71.8125 C133.154375 72.66457031 132.30875 73.51664062 131.4375 74.39453125 C129.1488528 76.84088972 127.0715689 79.3698552 125 82 C122.5448961 84.58100666 120.13956799 86.89288968 117.3125 89.0625 C115.04518336 90.96214367 114.06752752 92.28265723 113 95 C112.01 95 111.02 95 110 95 C110 75.53 110 56.06 110 36 C108.02 35.505 108.02 35.505 106 35 C106.04640625 35.61746094 106.0928125 36.23492187 106.140625 36.87109375 C106.38999518 42.72238701 105.65618195 46.77903004 102.97265625 51.9921875 C101.98178126 54.03760817 101.30042184 55.74452525 101 58 C102.82522428 60.65653729 102.82522428 60.65653729 105 63 C107.11199207 67.22398413 106.51536391 72.41655074 106 77 C104.67820584 80.56791989 103.00142399 83.76912984 101 87 C100.34 87 99.68 87 99 87 C99 87.66 99 88.32 99 89 C90.7131863 94.47720101 82.96501971 94.61468255 73.375 94.3125 C71.9753007 94.28736056 70.5755574 94.26455743 69.17578125 94.24414062 C65.7827088 94.18563938 62.39194105 94.10370469 59 94 C58.7494791 88.16941513 58.56983795 82.34207491 58.45068359 76.50732422 C58.40093478 74.5305312 58.33310384 72.55409541 58.24560547 70.57861328 C57.61732407 56.00987641 59.50458068 46.36582231 69 35 C69.33 35 69.66 35 70 35 C70 40.28 70 45.56 70 51 C72.73064947 50.91269147 75.4581619 50.80577876 78.1875 50.6875 C78.95642578 50.66494141 79.72535156 50.64238281 80.51757812 50.61914062 C85.11096706 50.40228535 88.27224699 49.95552545 92 47 C94.0073152 43.98902719 94.36010763 43.01900719 94.5 39.5625 C94.57734375 38.41974609 94.57734375 38.41974609 94.65625 37.25390625 C93.8444659 34.46581444 92.5717864 33.25655212 90.09472656 31.77905273 C85.48352503 30.06409422 80.48765714 30.31300262 75.625 30.25 C73.94857422 30.20552734 73.94857422 30.20552734 72.23828125 30.16015625 C69.4921161 30.08974176 66.74678596 30.03690377 64 30 C63.73590332 30.70705078 63.47180664 31.41410156 63.19970703 32.14257812 C61.93385644 35.15753852 60.44170562 37.88850895 58.8046875 40.71875 C58.1744165 41.81074707 57.54414551 42.90274414 56.89477539 44.02783203 C56.22171473 45.18533639 55.54845307 46.3427239 54.875 47.5 C54.19319677 48.67687352 53.51147488 49.85379416 52.82983398 51.03076172 C48.34227397 58.76423405 43.78570614 66.44684079 39 74 C36.02647799 71.23904334 34.03056665 68.61826127 32.125 65.04296875 C31.61453125 64.09486328 31.1040625 63.14675781 30.578125 62.16992188 C30.05734375 61.18572266 29.5365625 60.20152344 29 59.1875 C27.95890733 57.24318213 26.91725282 55.29916497 25.875 53.35546875 C25.41867188 52.49590576 24.96234375 51.63634277 24.4921875 50.75073242 C22.71344129 47.47175115 20.85078154 44.2388677 19 41 C18.67 62.45 18.34 83.9 18 106 C30.54 106 43.08 106 56 106 C56 109.96 56 113.92 56 118 C54.68281982 118.02505615 53.36563965 118.0501123 52.00854492 118.07592773 C47.12758438 118.17000882 42.24676592 118.27022792 37.3659668 118.37231445 C35.2523938 118.41566064 33.13878586 118.45733594 31.02514648 118.49731445 C27.98931336 118.55502449 24.95365611 118.61871701 21.91796875 118.68359375 C20.97100632 118.70030624 20.02404388 118.71701874 19.04838562 118.73423767 C17.72735588 118.7641555 17.72735588 118.7641555 16.37963867 118.79467773 C15.60464523 118.81022202 14.82965179 118.8257663 14.03117371 118.84178162 C11.79667507 118.93355377 11.79667507 118.93355377 9 120 C6.66666667 120 4.33333333 120 2 120 C1.01 120.495 1.01 120.495 0 121 C-0.73965455 115.05305166 -1.14549788 109.26976997 -1.12939453 103.28100586 C-1.13202301 102.04938972 -1.13202301 102.04938972 -1.13470459 100.79289246 C-1.13907433 98.10018747 -1.13619824 95.40754932 -1.1328125 92.71484375 C-1.1334879 90.81222013 -1.13445989 88.90959659 -1.13571167 87.00697327 C-1.13718289 83.0185565 -1.13505618 79.03016219 -1.13037109 75.04174805 C-1.12473171 70.00245535 -1.12800474 64.96321615 -1.13382339 59.9239254 C-1.15329809 39.9286298 -1.16627499 19.9688063 0 0 Z " fill="#464648" transform="translate(10,18)"/>
<path d="M0 0 C4.29 0 8.58 0 13 0 C13.96421875 1.72347656 14.9284375 3.44695313 15.921875 5.22265625 C16.86846714 6.91399368 17.81506161 8.60532981 18.76171875 10.29663086 C19.73198743 12.03031499 20.70193427 13.76417924 21.671875 15.49804688 C22.90106877 17.69395033 24.13212323 19.88881349 25.36523438 22.08251953 C26.34373098 23.82879109 27.31598344 25.57861746 28.27539062 27.33544922 C30.01501788 30.76532218 30.01501788 30.76532218 33 33 C33.12294434 32.4212915 33.24588867 31.84258301 33.37255859 31.24633789 C34.01589664 28.94308754 34.87784285 27.14458217 36.0390625 25.05859375 C36.45542969 24.30900391 36.87179688 23.55941406 37.30078125 22.78710938 C37.73777344 22.01173828 38.17476562 21.23636719 38.625 20.4375 C39.03878906 19.68919922 39.45257813 18.94089844 39.87890625 18.16992188 C40.75122101 16.60956554 41.64722107 15.06226238 42.56396484 13.52758789 C44.0755664 10.96581562 44.0755664 10.96581562 45.33056641 7.98608398 C46.94707156 4.72065924 48.30401517 2.46490832 51 0 C56.43476833 -1.41194044 61.5611808 -1.13422584 67.125 -0.8125 C68.59232933 -0.77441491 70.05979268 -0.74116934 71.52734375 -0.71289062 C82.92052238 -0.39291385 89.06875654 1.62637642 97 10 C99.64905914 14.87426883 99.69601265 20.55472459 99 26 C98.15472824 28.45167058 97.15870011 30.68811664 95.97265625 32.9921875 C94.98178126 35.03760817 94.30042184 36.74452525 94 39 C95.82522428 41.65653729 95.82522428 41.65653729 98 44 C100.11199207 48.22398413 99.51536391 53.41655074 99 58 C97.67820584 61.56791989 96.00142399 64.76912984 94 68 C93.34 68 92.68 68 92 68 C92 68.66 92 69.32 92 70 C83.7131863 75.47720101 75.96501971 75.61468255 66.375 75.3125 C64.9753007 75.28736056 63.5755574 75.26455743 62.17578125 75.24414062 C58.7827088 75.18563938 55.39194105 75.10370469 52 75 C51.7494791 69.16941513 51.56983795 63.34207491 51.45068359 57.50732422 C51.40093478 55.5305312 51.33310384 53.55409541 51.24560547 51.57861328 C50.61732407 37.00987641 52.50458068 27.36582231 62 16 C62.33 16 62.66 16 63 16 C63 21.28 63 26.56 63 32 C65.73064947 31.91269147 68.4581619 31.80577876 71.1875 31.6875 C71.95642578 31.66494141 72.72535156 31.64238281 73.51757812 31.61914062 C78.11096706 31.40228535 81.27224699 30.95552545 85 28 C87.0073152 24.98902719 87.36010763 24.01900719 87.5 20.5625 C87.57734375 19.41974609 87.57734375 19.41974609 87.65625 18.25390625 C86.8444659 15.46581444 85.5717864 14.25655212 83.09472656 12.77905273 C78.48352503 11.06409422 73.48765714 11.31300262 68.625 11.25 C66.94857422 11.20552734 66.94857422 11.20552734 65.23828125 11.16015625 C62.4921161 11.08974176 59.74678596 11.03690377 57 11 C56.73590332 11.70705078 56.47180664 12.41410156 56.19970703 13.14257812 C54.93385644 16.15753852 53.44170562 18.88850895 51.8046875 21.71875 C51.1744165 22.81074707 50.54414551 23.90274414 49.89477539 25.02783203 C49.22171473 26.18533639 48.54845307 27.3427239 47.875 28.5 C47.19319677 29.67687352 46.51147488 30.85379416 45.82983398 32.03076172 C41.34227397 39.76423405 36.78570614 47.44684079 32 55 C29.02647799 52.23904334 27.03056665 49.61826127 25.125 46.04296875 C24.61453125 45.09486328 24.1040625 44.14675781 23.578125 43.16992188 C23.05734375 42.18572266 22.5365625 41.20152344 22 40.1875 C20.95890733 38.24318213 19.91725282 36.29916497 18.875 34.35546875 C18.41867188 33.49590576 17.96234375 32.63634277 17.4921875 31.75073242 C15.71344129 28.47175115 13.85078154 25.2388677 12 22 C11.67 43.45 11.34 64.9 11 87 C23.54 87 36.08 87 49 87 C49 90.96 49 94.92 49 99 C32.83 99 16.66 99 0 99 C0 66.33 0 33.66 0 0 Z " fill="#F3F3F3" transform="translate(17,37)"/>
<path d="M0 0 C65.34 0 130.68 0 198 0 C198 49.83 198 99.66 198 151 C132.66 151 67.32 151 0 151 C0 101.17 0 51.34 0 0 Z M7 8 C7 53.54 7 99.08 7 146 C68.38 146 129.76 146 193 146 C193 100.46 193 54.92 193 8 C131.62 8 70.24 8 7 8 Z " fill="#B7A159" transform="translate(0,0)"/>
<path d="M0 0 C54.78 0 109.56 0 166 0 C166 22.44 166 44.88 166 68 C162 66 162 66 155 59 C155 43.16 155 27.32 155 11 C103.85 11 52.7 11 0 11 C0 7.37 0 3.74 0 0 Z " fill="#F4F4F4" transform="translate(17,18)"/>
<path d="M0 0 C64.02 0 128.04 0 194 0 C194 1.65 194 3.3 194 5 C193.67 4.01 193.34 3.02 193 2 C192.01 2.33 191.02 2.66 190 3 C187.51642297 3.09334183 185.06140244 3.13037215 182.57795715 3.12025452 C181.43480113 3.12153615 181.43480113 3.12153615 180.26855105 3.12284368 C177.70741203 3.12449464 175.14633809 3.11898338 172.58520508 3.11352539 C170.75227358 3.11324341 168.91934196 3.11340147 167.08641052 3.1139679 C162.10326617 3.11425545 157.12014577 3.10836553 152.137007 3.10139394 C146.93197135 3.09515338 141.72693518 3.09455604 136.52189636 3.09336853 C126.66218566 3.09025729 116.80248602 3.08204669 106.9427802 3.07201904 C93.6216363 3.05876435 80.30048938 3.05335632 66.97934055 3.04751682 C45.98621875 3.03810667 24.99312028 3.01818636 4 3 C4 48.87 4 94.74 4 142 C64.06 142 124.12 142 186 142 C186 142.33 186 142.66 186 143 C174.78 143 163.56 143 152 143 C152 143.66 152 144.32 152 145 C101.84 145 51.68 145 0 145 C0 97.15 0 49.3 0 0 Z " fill="#C8B25D" transform="translate(3,4)"/>
<path d="M0 0 C3.63 0 7.26 0 11 0 C11 15.84 11 31.68 11 48 C14.9614806 44.69876616 18.44185553 41.6428622 22 38 C23.43615717 36.56115842 24.87373626 35.12373515 26.3125 33.6875 C27.00988281 32.99011719 27.70726562 32.29273438 28.42578125 31.57421875 C28.94527344 31.05472656 29.46476562 30.53523438 30 30 C37.69775671 33.36223856 43.82758696 40.45806313 49.0625 46.86328125 C51.05266527 49.15439462 51.05266527 49.15439462 53.875 51.41796875 C62.1283709 58.42070936 62.1283709 58.42070936 62.703125 64.0390625 C62.80044025 67.72709408 62.48858918 71.34298401 62 75 C61.34 75 60.68 75 60 75 C58.65795898 73.63671875 58.65795898 73.63671875 57.05859375 71.6875 C52.35864071 66.16015051 47.21244309 61.10357873 42.0625 56 C41.0824469 55.02497614 40.1026276 54.0497172 39.12304688 53.07421875 C36.75097687 50.71383382 34.3765914 48.35583095 32 46 C28.27791717 47.73661132 25.89194833 49.87205863 23 52.8125 C22.154375 53.66457031 21.30875 54.51664063 20.4375 55.39453125 C18.1488528 57.84088972 16.0715689 60.3698552 14 63 C11.54418475 65.58175449 9.10832769 67.91434554 6.3125 70.125 C3.80846331 71.96561073 3.80846331 71.96561073 2 75 C1.34 75 0.68 75 0 75 C0 50.25 0 25.5 0 0 Z " fill="#F6F6F6" transform="translate(121,37)"/>
<path d="M0 0 C65.34 0 130.68 0 198 0 C198 1.32 198 2.64 198 4 C133.32 4 68.64 4 2 4 C2 52.18 2 100.36 2 150 C66.68 150 131.36 150 198 150 C198 150.33 198 150.66 198 151 C132.66 151 67.32 151 0 151 C0 101.17 0 51.34 0 0 Z " fill="#524733" transform="translate(0,0)"/>
<path d="M0 0 C60.72 0 121.44 0 184 0 C184 42.24 184 84.48 184 128 C183.67 128 183.34 128 183 128 C183 86.09 183 44.18 183 1 C176.565 1.495 176.565 1.495 170 2 C167.54517204 2.07404549 165.08898094 2.1184146 162.63304138 2.11352539 C160.67595749 2.11341965 160.67595749 2.11341965 158.67933655 2.11331177 C157.28158537 2.10818081 155.88383452 2.10295935 154.48608398 2.09765625 C152.97656301 2.09573179 151.46704138 2.09427049 149.95751953 2.0932312 C146.73397541 2.09009583 143.51045821 2.08386667 140.28692436 2.07516479 C135.17883896 2.06151862 130.07076213 2.05572252 124.96266174 2.05102539 C114.12092936 2.03997716 103.27921813 2.02044092 92.4375 2 C80.72515452 1.97792273 69.01281782 1.95735582 57.30045563 1.94658184 C52.23334599 1.94163131 47.1662772 1.93182041 42.09918392 1.91815186 C38.93669071 1.9106393 35.77420291 1.90736618 32.61170197 1.9051857 C31.15736369 1.90332992 29.70302631 1.8997621 28.24869728 1.89425278 C19.77547617 1.8631919 11.43095674 2.12897972 3 3 C1.99383234 6.01850298 1.86342731 8.06295897 1.84178162 11.22013855 C1.8319928 12.30127426 1.82220398 13.38240997 1.81211853 14.49630737 C1.80636307 15.68241608 1.8006076 16.86852478 1.79467773 18.09057617 C1.78477814 19.33947128 1.77487854 20.58836639 1.76467896 21.87510681 C1.7384828 25.30043467 1.71662422 28.72573911 1.69667697 32.15110564 C1.67481228 35.73058949 1.64742595 39.31003094 1.62062073 42.88948059 C1.57070038 49.66797363 1.52575911 56.44649021 1.48259836 63.22502929 C1.42398953 72.38466463 1.35770618 81.54424421 1.29184818 90.70382977 C1.18828378 105.13584894 1.09498781 119.56791593 1 134 C33.34 134 65.68 134 99 134 C99 134.33 99 134.66 99 135 C66.33 135 33.66 135 0 135 C0 90.45 0 45.9 0 0 Z " fill="#463C2F" transform="translate(8,9)"/>
<path d="M0 0 C2.84625 -0.103125 5.6925 -0.20625 8.625 -0.3125 C9.95265381 -0.38078003 9.95265381 -0.38078003 11.30712891 -0.45043945 C15.40752572 -0.52196337 18.22677057 -0.30874273 21.546875 2.23828125 C24.79026143 5.8896733 24.79026143 5.8896733 24.625 9.5 C24.33590475 13.73066215 23.18799912 16.08525795 20 19 C17.29283758 19.90238747 15.76223232 20.11851302 12.98828125 20.09765625 C11.96408081 20.09390991 11.96408081 20.09390991 10.91918945 20.09008789 C10.05898193 20.08098389 9.19877441 20.07187988 8.3125 20.0625 C4.1978125 20.0315625 4.1978125 20.0315625 0 20 C0 13.4 0 6.8 0 0 Z " fill="#424243" transform="translate(81,80)"/>
<path d="M0 0 C0.33 0 0.66 0 1 0 C1.02333608 17.9584216 1.04098267 35.91683928 1.05181217 53.87527275 C1.05697362 62.21324037 1.06401345 70.55119858 1.07543945 78.88916016 C1.0853909 86.1545319 1.09185453 93.41989683 1.09408849 100.6852752 C1.09539481 104.53402622 1.09847573 108.38275775 1.10573006 112.23150253 C1.11249752 115.85113746 1.11461547 119.47074479 1.11310768 123.09038544 C1.11351567 125.05809378 1.1189071 127.02579909 1.12442017 128.99349976 C1.1230455 130.15740234 1.12167084 131.32130493 1.12025452 132.52047729 C1.12117631 133.53629316 1.1220981 134.55210903 1.12304783 135.5987072 C1 138 1 138 0 140 C-0.66 140 -1.32 140 -2 140 C-1.89286412 122.04153501 -1.78012146 104.08311446 -1.66066074 86.12472725 C-1.60532746 77.78677916 -1.5518453 69.4488268 -1.50268555 61.11083984 C-1.45984499 53.84544143 -1.41356733 46.58007454 -1.36312145 39.3147248 C-1.33651947 35.46599241 -1.31166637 31.61726628 -1.29092598 27.76849747 C-1.27136596 24.14883199 -1.24722412 20.52922651 -1.21950912 16.90961456 C-1.20565261 14.94193034 -1.19670706 12.97421347 -1.18788147 11.00650024 C-1.17319824 9.26064636 -1.17319824 9.26064636 -1.15821838 7.47952271 C-1.15176583 6.46370684 -1.14531328 5.44789097 -1.1386652 4.4012928 C-1 2 -1 2 0 0 Z " fill="#BCA85A" transform="translate(6,8)"/>
<path d="M0 0 C0.33 0 0.66 0 1 0 C1.06964774 9.00593238 1.12288603 18.01177139 1.15543652 27.01791477 C1.17106266 31.20027269 1.19224477 35.38244573 1.22631836 39.56469727 C1.25902123 43.60418949 1.27687595 47.64350438 1.28463173 51.68311882 C1.2901557 53.22083259 1.30094261 54.75853715 1.31719017 56.296175 C1.33911051 58.45750692 1.34196096 60.61811503 1.34057617 62.77954102 C1.34723801 64.00753922 1.35389984 65.23553741 1.36076355 66.50074768 C0.93785985 70.60273288 -0.21010357 73.30970192 -2 77 C-6.52615993 73.32167983 -10.39424999 69.58913637 -14 65 C-13.34 65 -12.68 65 -12 65 C-11.34 63.35 -10.68 61.7 -10 60 C-9.52949219 60.40992188 -9.05898437 60.81984375 -8.57421875 61.2421875 C-7.95160156 61.78101563 -7.32898438 62.31984375 -6.6875 62.875 C-6.07261719 63.40867188 -5.45773438 63.94234375 -4.82421875 64.4921875 C-2.86501788 66.1640447 -2.86501788 66.1640447 0 68 C0 45.56 0 23.12 0 0 Z " fill="#616161" transform="translate(183,18)"/>
<path d="M0 0 C7.92 0 15.84 0 24 0 C24 0.33 24 0.66 24 1 C17.73 1 11.46 1 5 1 C5 1.66 5 2.32 5 3 C5.66 3 6.32 3 7 3 C7 8.61 7 14.22 7 20 C12.28 20 17.56 20 23 20 C23 20.33 23 20.66 23 21 C17.39 21 11.78 21 6 21 C5.67 16.05 5.34 11.1 5 6 C4.01 6.99 3.02 7.98 2 9 C0.68 7.68 -0.64 6.36 -2 5 C-1.34 3.35 -0.68 1.7 0 0 Z " fill="#656566" transform="translate(74,48)"/>
<path d="M0 0 C1.5625 1.6875 1.5625 1.6875 3 4 C2.85549796 6.96229175 2.40712432 8.48666934 0.5625 10.8125 C-1 12 -1 12 -3 12 C-3.33 11.34 -3.66 10.68 -4 10 C-4.99 10.33 -5.98 10.66 -7 11 C-3.57894737 1.78947368 -3.57894737 1.78947368 0 0 Z " fill="#4D4D4D" transform="translate(73,52)"/>
<path d="M0 0 C3 2 3 2 3.6875 5.125 C3.790625 6.07375 3.89375 7.0225 4 8 C1.6568787 7.74438677 -0.67843403 7.40729228 -3 7 C-3.33 6.34 -3.66 5.68 -4 5 C-3.34 5 -2.68 5 -2 5 C-1.34 3.35 -0.68 1.7 0 0 Z " fill="#4A4A4B" transform="translate(173,78)"/>
<path d="M0 0 C0.33 0 0.66 0 1 0 C1.36625971 4.51720311 1.36625971 4.51720311 -0.375 6.8125 C-2 8 -2 8 -4 8 C-2.87548273 5.0280615 -1.77706209 2.66559313 0 0 Z " fill="#DCDCDD" transform="translate(79,53)"/>
<path d="M0 0 C0.33 0 0.66 0 1 0 C2.05699482 5.28497409 2.05699482 5.28497409 2 8 C0.0625 10.5 0.0625 10.5 -2 12 C-2.66 11.67 -3.32 11.34 -4 11 C-3.2884375 10.2265625 -3.2884375 10.2265625 -2.5625 9.4375 C-0.57190593 6.33217325 -0.34939182 3.63367496 0 0 Z " fill="#D0D0D0" transform="translate(105,87)"/>
</svg>
